<?xml version="1.0" encoding="UTF-8" standalone="no"?>
<svg
   xmlns:dc="http://purl.org/dc/elements/1.1/"
   xmlns:cc="http://creativecommons.org/ns#"
   xmlns:rdf="http://www.w3.org/1999/02/22-rdf-syntax-ns#"
   xmlns:svg="http://www.w3.org/2000/svg"
   xmlns="http://www.w3.org/2000/svg"
   xmlns:xlink="http://www.w3.org/1999/xlink"
   xmlns:sodipodi="http://sodipodi.sourceforge.net/DTD/sodipodi-0.dtd"
   xmlns:inkscape="http://www.inkscape.org/namespaces/inkscape"
   inkscape:version="1.0 (4035a4fb49, 2020-05-01)"
   id="svg8"
   version="1.1"
   viewBox="0 0 185.20833 185.20834"
   height="700"
   width="700"
   sodipodi:docname="TAG.svg">
  <defs
     id="defs2">
    <rect
       id="rect4087"
       height="14.2875"
       width="125.4125"
       y="120.12083"
       x="70.379167" />
    <linearGradient
       inkscape:collect="always"
       id="linearGradient1595">
      <stop
         style="stop-color:#46a546;stop-opacity:1;"
         offset="0"
         id="stop1591" />
      <stop
         id="stop1601"
         offset="0.23483503"
         style="stop-color:#46a546;stop-opacity:1" />
      <stop
         id="stop1599"
         offset="0.46967006"
         style="stop-color:#6abe6a;stop-opacity:1" />
      <stop
         style="stop-color:#46a546;stop-opacity:1"
         offset="0.78786802"
         id="stop1603" />
      <stop
         style="stop-color:#46a546;stop-opacity:1"
         offset="1"
         id="stop1593" />
    </linearGradient>
    <rect
       x="51.850289"
       y="74.300929"
       width="93.009796"
       height="33.94323"
       id="rect1378" />
    <linearGradient
       inkscape:collect="always"
       id="linearGradient1372">
      <stop
         style="stop-color:#47a747;stop-opacity:1;"
         offset="0"
         id="stop1368" />
      <stop
         style="stop-color:#3a883a;stop-opacity:1"
         offset="1"
         id="stop1370" />
    </linearGradient>
    <radialGradient
       inkscape:collect="always"
       xlink:href="#linearGradient1372"
       id="radialGradient1374"
       cx="94.880684"
       cy="89.263626"
       fx="94.880684"
       fy="89.263626"
       r="92.604179"
       gradientTransform="matrix(0.96974631,-1.0509967e-5,0,0.95698697,2.87049,3.577625)"
       gradientUnits="userSpaceOnUse" />
    <rect
       id="rect1386"
       height="33.94323"
       width="93.009796"
       y="74.300929"
       x="51.850289" />
    <filter
       inkscape:collect="always"
       style="color-interpolation-filters:sRGB"
       id="filter1555"
       x="-0.013682236"
       width="1.0273645"
       y="-0.083706226"
       height="1.1674125">
      <feGaussianBlur
         inkscape:collect="always"
         stdDeviation="0.45320398"
         id="feGaussianBlur1557" />
    </filter>
    <filter
       inkscape:collect="always"
       style="color-interpolation-filters:sRGB"
       id="filter1579"
       x="-0.060526537"
       width="1.1210531"
       y="-0.014595912"
       height="1.0291918">
      <feGaussianBlur
         inkscape:collect="always"
         stdDeviation="0.075972513"
         id="feGaussianBlur1581" />
    </filter>
    <radialGradient
       inkscape:collect="always"
       xlink:href="#linearGradient1595"
       id="radialGradient1597"
       cx="97.511261"
       cy="84.208374"
       fx="97.511261"
       fy="84.208374"
       r="1.3094456"
       gradientTransform="matrix(-0.02766382,9.6697425,-4.7699878,-0.01364793,501.88171,-862.51558)"
       gradientUnits="userSpaceOnUse" />
  </defs>
  <sodipodi:namedview
     inkscape:showpageshadow="true"
     borderlayer="false"
     showborder="true"
     inkscape:pagecheckerboard="false"
     guidetolerance="5.2"
     gridtolerance="5.2"
     objecttolerance="5.2"
     units="px"
     showgrid="false"
     inkscape:document-rotation="0"
     inkscape:current-layer="layer1"
     inkscape:document-units="px"
     inkscape:cy="333.3746"
     inkscape:cx="502.94004"
     inkscape:zoom="1"
     inkscape:pageshadow="2"
     inkscape:pageopacity="1"
     borderopacity="0.14509804"
     bordercolor="#000000"
     pagecolor="#343434"
     id="base"
     inkscape:window-width="1920"
     inkscape:window-height="1017"
     inkscape:window-x="-8"
     inkscape:window-y="-8"
     inkscape:window-maximized="1" />
  <metadata
     id="metadata5">
    <rdf:RDF>
      <cc:Work
         rdf:about="">
        <dc:format>image/svg+xml</dc:format>
        <dc:type
           rdf:resource="http://purl.org/dc/dcmitype/StillImage" />
        <dc:title />
      </cc:Work>
    </rdf:RDF>
  </metadata>
  <g
     id="layer1"
     inkscape:groupmode="layer"
     inkscape:label="Layer 1">
    <rect
       y="171.45"
       x="3.4912705e-07"
       height="13.758333"
       width="46.302082"
       id="rect27"
       style="fill:#7887ab;fill-opacity:0.937255;fill-rule:evenodd;stroke-width:5.45961;stroke-linejoin:round;stroke-opacity:0.799163" />
    <text
       id="text31"
       y="181.80656"
       x="3.7014809"
       style="font-style:normal;font-weight:normal;font-size:10.5833px;line-height:1.25;font-family:sans-serif;fill:#ffffff;fill-opacity:1;stroke:none;stroke-width:0.264583"
       xml:space="preserve"><tspan
         style="font-style:normal;font-variant:normal;font-weight:normal;font-stretch:normal;font-size:8.81944px;font-family:'Century Gothic';-inkscape-font-specification:'Century Gothic';fill:#ffffff;stroke-width:0.264583"
         y="181.80656"
         x="3.7014809"
         id="tspan29"
         sodipodi:role="line">#7887AB</tspan></text>
    <rect
       style="fill:#4f628e;fill-opacity:0.937255;fill-rule:evenodd;stroke-width:5.45961;stroke-linejoin:round;stroke-opacity:0.799163"
       id="rect33"
       width="46.302082"
       height="13.758333"
       x="46.302082"
       y="171.45" />
    <text
       xml:space="preserve"
       style="font-style:normal;font-weight:normal;font-size:10.5833px;line-height:1.25;font-family:sans-serif;fill:#ffffff;fill-opacity:1;stroke:none;stroke-width:0.264583"
       x="52.008083"
       y="181.80656"
       id="text37"><tspan
         sodipodi:role="line"
         id="tspan35"
         x="52.008083"
         y="181.80656"
         style="font-style:normal;font-variant:normal;font-weight:normal;font-stretch:normal;font-size:8.81944px;font-family:'Century Gothic';-inkscape-font-specification:'Century Gothic';fill:#ffffff;stroke-width:0.264583">#4F628E</tspan></text>
    <rect
       y="171.45"
       x="92.604164"
       height="13.758333"
       width="46.302082"
       id="rect862"
       style="fill:#162955;fill-opacity:0.937255;fill-rule:evenodd;stroke-width:5.45961;stroke-linejoin:round;stroke-opacity:0.799163" />
    <text
       id="text866"
       y="181.80656"
       x="98.310165"
       style="font-style:normal;font-weight:normal;font-size:10.5833px;line-height:1.25;font-family:sans-serif;fill:#ffffff;fill-opacity:1;stroke:none;stroke-width:0.264583"
       xml:space="preserve"><tspan
         style="font-style:normal;font-variant:normal;font-weight:normal;font-stretch:normal;font-size:8.81944px;font-family:'Century Gothic';-inkscape-font-specification:'Century Gothic';fill:#ffffff;stroke-width:0.264583"
         y="181.80656"
         x="98.310165"
         id="tspan864"
         sodipodi:role="line">#162955</tspan></text>
    <rect
       style="fill:#061539;fill-opacity:0.937255;fill-rule:evenodd;stroke-width:5.45961;stroke-linejoin:round;stroke-opacity:0.799163"
       id="rect868"
       width="46.302082"
       height="13.758333"
       x="138.90625"
       y="171.45" />
    <text
       xml:space="preserve"
       style="font-style:normal;font-weight:normal;font-size:10.5833px;line-height:1.25;font-family:sans-serif;fill:#ffffff;fill-opacity:1;stroke:none;stroke-width:0.264583"
       x="144.61226"
       y="181.80656"
       id="text872"><tspan
         sodipodi:role="line"
         id="tspan870"
         x="144.61226"
         y="181.80656"
         style="font-style:normal;font-variant:normal;font-weight:normal;font-stretch:normal;font-size:8.81944px;font-family:'Century Gothic';-inkscape-font-specification:'Century Gothic';fill:#ffffff;stroke-width:0.264583">#061539</tspan></text>
    <rect
       y="-13.758333"
       x="-46.302082"
       height="13.758333"
       width="46.302082"
       id="rect898"
       style="fill:#552700;fill-opacity:0.93725491;fill-rule:evenodd;stroke-width:5.45961;stroke-linejoin:round;stroke-opacity:0.799163"
       transform="rotate(-90)" />
    <text
       transform="rotate(-90)"
       xml:space="preserve"
       style="font-style:normal;font-weight:normal;font-size:10.5833px;line-height:1.25;font-family:sans-serif;fill:#ffffff;fill-opacity:1;stroke:none;stroke-width:0.264583"
       x="-42.411606"
       y="-3.4017661"
       id="text878"><tspan
         sodipodi:role="line"
         id="tspan876"
         x="-42.411606"
         y="-3.4017661"
         style="font-style:normal;font-variant:normal;font-weight:normal;font-stretch:normal;font-size:8.81944px;font-family:'Century Gothic';-inkscape-font-specification:'Century Gothic';fill:#ffffff;stroke-width:0.264583">#552700</tspan></text>
    <rect
       transform="rotate(-90)"
       style="fill:#804515;fill-opacity:0.93725491;fill-rule:evenodd;stroke-width:5.45961;stroke-linejoin:round;stroke-opacity:0.799163"
       id="rect900"
       width="46.302082"
       height="13.758333"
       x="-92.604164"
       y="-13.758333" />
    <text
       id="text904"
       y="-3.4017661"
       x="-88.713684"
       style="font-style:normal;font-weight:normal;font-size:10.5833px;line-height:1.25;font-family:sans-serif;fill:#ffffff;fill-opacity:1;stroke:none;stroke-width:0.264583"
       xml:space="preserve"
       transform="rotate(-90)"><tspan
         style="font-style:normal;font-variant:normal;font-weight:normal;font-stretch:normal;font-size:8.81944px;font-family:'Century Gothic';-inkscape-font-specification:'Century Gothic';fill:#ffffff;stroke-width:0.264583"
         y="-3.4017661"
         x="-88.713684"
         id="tspan902"
         sodipodi:role="line">#804515</tspan></text>
    <rect
       y="-13.758333"
       x="-138.90625"
       height="13.758333"
       width="46.302082"
       id="rect906"
       style="fill:#d49a6a;fill-opacity:0.93725491;fill-rule:evenodd;stroke-width:5.45961;stroke-linejoin:round;stroke-opacity:0.799163"
       transform="rotate(-90)" />
    <text
       transform="rotate(-90)"
       xml:space="preserve"
       style="font-style:normal;font-weight:normal;font-size:10.5833px;line-height:1.25;font-family:sans-serif;fill:#ffffff;fill-opacity:1;stroke:none;stroke-width:0.264583"
       x="-136.60324"
       y="-3.4017661"
       id="text910"><tspan
         sodipodi:role="line"
         id="tspan908"
         x="-136.60324"
         y="-3.4017661"
         style="font-style:normal;font-variant:normal;font-weight:normal;font-stretch:normal;font-size:8.81944px;font-family:'Century Gothic';-inkscape-font-specification:'Century Gothic';fill:#ffffff;stroke-width:0.264583">#D49A6A</tspan></text>
    <rect
       transform="rotate(-90)"
       style="fill:#ffd1aa;fill-opacity:0.93725491;fill-rule:evenodd;stroke-width:5.45961;stroke-linejoin:round;stroke-opacity:0.799163"
       id="rect912"
       width="46.302082"
       height="13.758333"
       x="-185.20833"
       y="-13.758333" />
    <text
       id="text916"
       y="-3.4017661"
       x="-181.31784"
       style="font-style:normal;font-weight:normal;font-size:10.5833px;line-height:1.25;font-family:sans-serif;fill:#ffffff;fill-opacity:1;stroke:none;stroke-width:0.264583"
       xml:space="preserve"
       transform="rotate(-90)"><tspan
         style="font-style:normal;font-variant:normal;font-weight:normal;font-stretch:normal;font-size:8.81944px;font-family:'Century Gothic';-inkscape-font-specification:'Century Gothic';fill:#ffffff;stroke-width:0.264583"
         y="-3.4017661"
         x="-181.31784"
         id="tspan914"
         sodipodi:role="line">#FFD1AA</tspan></text>
    <rect
       style="fill:#ff0000;fill-opacity:0;fill-rule:evenodd;stroke:#37483e;stroke-width:0.105833;stroke-opacity:0.7;paint-order:markers fill stroke"
       id="rect1362"
       width="185.20834"
       height="171.45"
       x="0"
       y="0" />
    <rect
       style="fill:url(#radialGradient1374);fill-opacity:1;fill-rule:evenodd;stroke:none;stroke-width:0.105833;stroke-opacity:0.7;paint-order:markers fill stroke"
       id="rect1366"
       width="185.20836"
       height="171.45"
       x="0"
       y="0" />
    <path
       sodipodi:nodetypes="ccccsccscccsccscccccccccccccccsscccsscccscccccsssscccccccsccccccccccccccccccccccccsccscccsccccccccscccccsccccccccssccscccccccssccsccccsccccccc"
       d="m 128.96893,78.519302 c -0.22879,-1.97e-4 -0.45459,0.05191 -0.66016,0.152343 -0.2088,0.102227 -0.44928,0.184683 -0.73242,0.244141 -0.002,3.33e-4 -0.002,0.0016 -0.004,0.002 -0.28011,0.05585 -0.60338,0.08789 -0.97071,0.08789 -0.36399,0 -0.84995,-0.05573 -1.4375,-0.183594 l 0.004,0.002 c -0.43204,-0.09513 -0.7952,-0.160156 -1.20703,-0.160156 -0.59244,0 -1.15476,0.190801 -1.625,0.470703 -0.28196,0.167107 -0.46484,0.454528 -0.68945,0.699219 -0.15253,-0.149937 -0.20308,-0.382326 -0.38282,-0.503906 -0.66617,-0.45246 -1.47482,-0.666016 -2.27343,-0.666016 -1.16742,0 -2.29042,0.595426 -3.02539,1.498047 -0.22363,-0.27305 -0.33845,-0.631599 -0.63477,-0.832031 -0.66619,-0.452479 -1.47483,-0.666016 -2.27344,-0.666016 -1.25973,0 -2.51454,0.647609 -3.23047,1.677734 -0.001,0.0026 -0.003,0.0052 -0.004,0.0078 -0.11483,0.167185 -0.14131,0.378028 -0.23047,0.55664 v -0.550781 c -5.2e-4,-0.828213 -0.67179,-1.499482 -1.5,-1.5 h -2.16602 c -0.52129,-6.5e-4 -1.00559,0.269228 -1.27929,0.712891 l -0.83594,1.359375 c -0.61508,1.000323 0.10501,2.287677 1.2793,2.287109 h 0.0664 v 4.742188 c 5.2e-4,0.828213 0.67179,1.499482 1.5,1.5 h 1.43555 c 0.82821,-5.18e-4 1.49948,-0.671787 1.5,-1.5 v -0.539063 c 0.30328,0.601135 0.65682,1.189356 1.21875,1.572266 0.67269,0.458375 1.48419,0.658203 2.28906,0.658203 0.80063,0 1.60958,-0.196509 2.27734,-0.662109 0.003,-0.0013 0.005,-0.0026 0.008,-0.0039 0.3109,-0.219631 0.43717,-0.593021 0.66211,-0.890625 0.23556,0.302464 0.37601,0.679533 0.69726,0.898438 0.67078,0.457082 1.48225,0.658203 2.28711,0.658203 0.80064,0 1.60954,-0.195115 2.2793,-0.662109 0.003,-0.0013 0.005,-0.0026 0.008,-0.0039 0.073,-0.05159 0.0863,-0.152516 0.1543,-0.208984 0.14248,0.699023 0.7573,1.201172 1.4707,1.201172 h 1.04297 c 0.48525,3.33e-4 0.94073,-0.233953 1.22266,-0.628907 l 1.11523,-1.566406 c 0.15356,0.301502 0.13868,0.673498 0.37305,0.910156 0.002,0.0013 0.004,0.0026 0.006,0.0039 0.60693,0.606918 1.49376,0.970703 2.34765,0.970703 0.85287,0 1.73727,-0.366172 2.3418,-0.970703 0.60451,-0.604518 0.97266,-1.486955 0.97266,-2.34375 0,-0.857794 -0.36964,-1.742675 -0.97266,-2.345703 -0.47191,-0.471914 -1.16536,-0.641057 -1.83399,-0.761719 l 1.67579,-2.351563 c 0.70695,-0.993585 -0.003,-2.370844 -1.22266,-2.371093 z m -65.339817,0.144531 c -0.828213,5.18e-4 -1.499482,0.671787 -1.5,1.5 v 1.08789 c -0.548434,-0.326335 -1.152507,-0.560546 -1.78125,-0.560546 -0.398051,0 -0.787339,0.101959 -1.16211,0.230468 -0.162437,-0.05747 -0.333556,-0.08654 -0.505859,-0.08594 h -1.373047 v -0.480469 c -5.18e-4,-0.828213 -0.671787,-1.499482 -1.5,-1.5 h -1.4375 c -0.828213,5.18e-4 -1.499482,0.671787 -1.5,1.5 v 7.601563 c 5.18e-4,0.828213 0.671787,1.499482 1.5,1.5 h 1.4375 c 0.256485,-1.75e-4 0.508646,-0.06607 0.732422,-0.191407 0.224354,0.125657 0.477229,0.191566 0.734375,0.191407 h 1.40625 c 0.41321,7.4e-5 0.808172,-0.170205 1.091797,-0.470703 0.28409,0.300993 0.679862,0.471316 1.09375,0.470703 h 1.394531 c 0.237799,-4.05e-4 0.472098,-0.05731 0.683594,-0.166016 0.212083,0.109011 0.447088,0.165921 0.685547,0.166016 h 1.412109 c 0.465253,-7.09e-4 0.903873,-0.217134 1.1875,-0.585938 l 0.0957,0.103516 c 0.284365,0.307805 0.684461,0.482714 1.103516,0.482422 h 1.751953 c 0.24968,-1.48e-4 0.495379,-0.06258 0.714843,-0.181641 0.447685,0.169509 0.90611,0.326172 1.382813,0.326172 0.88341,0 1.804118,-0.272712 2.480469,-0.888672 0.109617,-0.09937 0.165091,-0.24898 0.259765,-0.365234 0.861937,0.829574 2.051182,1.253906 3.28125,1.253906 1.252229,0 2.410455,-0.542871 3.283203,-1.394531 0.02129,0.02375 0.02892,0.0568 0.05078,0.08008 6.65e-4,0.0013 0.0013,0.0026 0.002,0.0039 0.766191,0.810972 1.86587,1.310547 2.978515,1.310547 0.411669,0 0.820048,-0.103689 1.216797,-0.234375 0.16467,0.05969 0.338518,0.09009 0.513672,0.08984 h 1.332031 v 0.55664 c 5.18e-4,0.828213 0.671787,1.499482 1.5,1.5 h 1.400391 c 0.828213,-5.18e-4 1.499482,-0.671787 1.5,-1.5 v -0.45702 c 0.08013,0.0047 0.15637,0.04492 0.236328,0.04492 1.112646,0 2.212324,-0.499575 2.978516,-1.310547 6.69e-4,-0.0013 0.0013,-0.0026 0.002,-0.0039 0.07398,-0.07879 0.100562,-0.189441 0.167969,-0.273438 0.08023,0.09711 0.116015,0.224837 0.205078,0.314453 0.0013,6.69e-4 0.0026,0.0013 0.0039,0.002 0.836726,0.836726 2.020189,1.271484 3.216797,1.271484 0.74272,0 1.467474,-0.129469 2.125002,-0.447266 0.003,-0.0013 0.007,-0.0026 0.01,-0.0039 0.65397,-0.321553 1.20905,-0.822399 1.62888,-1.417969 0.23728,-0.336031 0.32624,-0.754723 0.2461,-1.158203 0.24877,-0.269109 0.39048,-0.619936 0.39843,-0.986328 l 0.006,-0.269531 c 1.2e-4,-0.01107 1.2e-4,-0.02213 0,-0.0332 2e-5,-1.22854 -0.41899,-2.434548 -1.26172,-3.292969 -0.83399,-0.852835 -2.026592,-1.300781 -3.230443,-1.300781 -1.173484,0 -2.338755,0.464921 -3.15625,1.302734 -0.07451,0.07637 -0.101751,0.185952 -0.169922,0.267578 -0.06292,-0.07921 -0.08724,-0.183239 -0.15625,-0.257812 -0.755708,-0.816572 -1.860659,-1.3125 -2.972656,-1.3125 -0.415258,0 -0.827713,0.115337 -1.230469,0.248046 -0.174244,-0.0683 -0.359724,-0.103407 -0.546875,-0.103515 h -1.400391 c -0.248851,-1.28e-4 -0.49383,0.06162 -0.71289,0.179687 -0.21906,-0.118067 -0.464039,-0.179815 -0.712891,-0.179687 h -1.40625 c -0.186371,-2.71e-4 -0.371162,0.03417 -0.544922,0.101562 -0.400945,-0.131905 -0.812205,-0.246093 -1.226562,-0.246093 -1.111997,0 -2.21695,0.495934 -2.972656,1.3125 -0.02508,0.0271 -0.03237,0.06602 -0.05664,0.09375 -0.332271,-0.330257 -0.629379,-0.703487 -1.048828,-0.91211 -0.668939,-0.336231 -1.41832,-0.49414 -2.175781,-0.49414 -0.819876,0 -1.63168,0.187112 -2.347657,0.570312 -0.0013,6.65e-4 -0.0026,0.0013 -0.0039,0.002 -0.328759,0.177203 -0.525974,0.509696 -0.800781,0.761719 -0.322842,-0.3667 -0.678917,-0.715908 -1.121094,-0.933594 -0.525154,-0.263213 -1.114171,-0.40039 -1.695312,-0.40039 -0.515002,0 -0.968619,0.317117 -1.449219,0.541015 -0.276877,-0.254793 -0.639354,-0.396299 -1.015625,-0.396484 h -1.767778 c -0.197774,7.6e-5 -0.393582,0.03924 -0.576172,0.115234 v -0.787109 c -5.18e-4,-0.828213 -0.671787,-1.499482 -1.5,-1.5 z"
       style="font-style:normal;font-variant:normal;font-weight:bold;font-stretch:normal;font-size:10.5833px;line-height:1.25;font-family:'Century Gothic';-inkscape-font-specification:'Century Gothic Bold';text-align:center;text-anchor:middle;white-space:pre;opacity:0.7;fill:#000000;fill-opacity:1;stroke:none;stroke-width:3.77953;filter:url(#filter1555)"
       id="path1533" />
    <path
       id="path1426"
       style="font-style:normal;font-variant:normal;font-weight:bold;font-stretch:normal;font-size:10.5833px;line-height:1.25;font-family:'Century Gothic';-inkscape-font-specification:'Century Gothic Bold';text-align:center;text-anchor:middle;white-space:pre;fill:#ececec;fill-opacity:1;stroke:none;stroke-width:3.77953"
       d="m 128.07335,78.219782 c -0.22878,-1.91e-4 -0.45458,0.05191 -0.66015,0.152344 -0.20881,0.102228 -0.44928,0.184685 -0.73243,0.244139 -0.002,1.95e-4 -0.002,0.0016 -0.004,0.0022 -0.28011,0.05585 -0.60338,0.08789 -0.97072,0.08788 -0.36398,4e-6 -0.84995,-0.05573 -1.43749,-0.183592 l 0.004,0.0019 c -0.43204,-0.09513 -0.7952,-0.160161 -1.20703,-0.16016 -0.59244,3e-6 -1.15476,0.190801 -1.625,0.470705 -0.28196,0.167108 -0.46484,0.454529 -0.68945,0.699218 -0.15254,-0.149932 -0.20308,-0.382325 -0.38282,-0.503905 -0.66617,-0.452463 -1.47482,-0.666016 -2.27344,-0.666013 -1.16741,4e-6 -2.29041,0.595429 -3.02538,1.49805 -0.22363,-0.273051 -0.33845,-0.631599 -0.63477,-0.832033 -0.66618,-0.452472 -1.47483,-0.666014 -2.27344,-0.666013 -1.25973,0 -2.51454,0.647607 -3.23047,1.677733 -0.001,0.0026 -0.003,0.0051 -0.004,0.0078 -0.11479,0.167201 -0.14136,0.37802 -0.23043,0.55666 l 0,-0.550785 c -5.2e-4,-0.828207 -0.67179,-1.499478 -1.5,-1.499997 l -2.16601,3e-6 c -0.5213,-6.52e-4 -1.0056,0.269226 -1.27929,0.71289 l -0.83595,1.359375 c -0.61508,1.000323 0.10501,2.287676 1.2793,2.28711 l 0.0664,-4e-6 -1e-5,4.742186 c 5.2e-4,0.828214 0.67179,1.499484 1.5,1.500001 l 1.43555,2e-6 c 0.8282,-5.23e-4 1.49948,-0.671789 1.5,-1.500005 l -8e-5,-0.53911 c 0.30328,0.601136 0.65682,1.189356 1.21875,1.572265 0.67269,0.458379 1.48419,0.658204 2.28906,0.658201 0.80062,-4e-6 1.60958,-0.19651 2.27734,-0.662112 0.003,-0.0013 0.005,-0.0026 0.008,-0.0039 0.3109,-0.219633 0.43718,-0.593016 0.66212,-0.890621 0.23555,0.302461 0.37599,0.679528 0.69725,0.898437 0.67078,0.457076 1.48225,0.658198 2.28712,0.658207 0.80063,-3e-6 1.60954,-0.195113 2.2793,-0.662107 0.003,-0.0013 0.005,-0.0026 0.008,-0.0039 0.073,-0.05157 0.0859,-0.152764 0.15434,-0.208967 0.14248,0.699021 0.75729,1.201167 1.47069,1.201167 l 1.04298,3e-6 c 0.48525,3.34e-4 0.94073,-0.23395 1.22266,-0.628906 l 1.11523,-1.566406 c 0.15355,0.301498 0.13868,0.673498 0.37305,0.910157 0.002,0.0012 0.004,0.0026 0.006,0.0038 0.60693,0.606919 1.49376,0.970701 2.34765,0.970704 0.85286,-5e-6 1.73728,-0.366171 2.34179,-0.970708 0.60452,-0.604512 0.97269,-1.48694 0.97267,-2.343745 0,-0.857796 -0.36964,-1.742674 -0.97266,-2.345704 -0.47191,-0.471913 -1.16536,-0.641055 -1.83398,-0.761719 l 1.67579,-2.351561 c 0.70694,-0.993586 -0.003,-2.370844 -1.22267,-2.371095 z m -65.339838,0.144532 c -0.828213,5.18e-4 -1.499482,0.671787 -1.5,1.5 l -10e-7,1.08789 c -0.548433,-0.326338 -1.152509,-0.560544 -1.78125,-0.560542 -0.398053,-10e-7 -0.78734,0.101959 -1.16211,0.230468 -0.162438,-0.05747 -0.333545,-0.08658 -0.505859,-0.08594 l -1.373047,0 10e-7,-0.48047 c -5.18e-4,-0.828212 -0.671788,-1.499482 -1.500001,-1.5 l -1.4375,10e-7 c -0.828212,5.17e-4 -1.499482,0.671787 -1.499999,1.499997 l -10e-7,7.601567 c 5.2e-4,0.828209 0.67179,1.499476 1.499999,1.500001 l 1.437499,-10e-7 c 0.256486,-1.72e-4 0.508647,-0.06607 0.732426,-0.191411 0.224178,0.125964 0.477221,0.191582 0.73438,0.191393 l 1.406247,4e-6 c 0.413209,7.5e-5 0.808173,-0.170206 1.091797,-0.470704 0.284092,0.300991 0.679883,0.471281 1.093749,0.470707 l 1.394533,-4e-6 c 0.237798,-4.07e-4 0.472097,-0.05731 0.683593,-0.166015 0.212063,0.109042 0.44711,0.165883 0.685547,0.16602 l 1.412107,4e-6 c 0.465253,-7.09e-4 0.903873,-0.217134 1.187501,-0.58594 l 0.0957,0.103516 c 0.284368,0.307801 0.684468,0.482704 1.103517,0.48242 l 1.751955,-3e-6 c 0.249677,-1.44e-4 0.495376,-0.06258 0.71484,-0.181637 0.447687,0.169506 0.90611,0.326173 1.382812,0.326173 0.883411,0 1.80412,-0.272711 2.48047,-0.888672 0.109615,-0.09937 0.165086,-0.248981 0.259769,-0.365232 0.861935,0.829574 2.051178,1.253911 3.281249,1.253906 1.252229,0 2.410454,-0.542871 3.283202,-1.394531 0.02129,0.02373 0.02892,0.0568 0.05078,0.08008 6.32e-4,0.0013 0.0013,0.0026 0.002,0.0038 0.766191,0.810972 1.865869,1.310547 2.978514,1.310546 0.41167,10e-7 0.820049,-0.103689 1.216797,-0.234374 0.16467,0.05969 0.338519,0.09009 0.513673,0.08984 l 1.33203,-2e-6 10e-7,0.556641 c 5.18e-4,0.828214 0.671786,1.499482 1.5,1.5 l 1.400391,-10e-7 c 0.828213,-5.17e-4 1.499482,-0.671787 1.499999,-1.499999 l 10e-7,-0.45702 c 0.08013,0.0047 0.156373,0.0449 0.236332,0.04491 1.112646,0 2.212323,-0.499575 2.978516,-1.310548 6.54e-4,-0.0013 0.0013,-0.0025 0.002,-0.0039 0.07398,-0.07879 0.100595,-0.189425 0.168019,-0.273411 0.08023,0.09711 0.116015,0.224837 0.205077,0.314452 0.0013,6.54e-4 0.0026,0.0013 0.0039,0.002 0.836727,0.836726 2.020191,1.271481 3.216799,1.271484 0.742719,0 1.467476,-0.129468 2.124993,-0.447266 0.0035,-0.0013 0.0069,-0.0024 0.0094,-0.0041 0.653999,-0.321553 1.209081,-0.822399 1.628911,-1.417969 0.23729,-0.336019 0.32626,-0.754708 0.24615,-1.158189 0.24878,-0.269101 0.39048,-0.619933 0.39843,-0.986329 l 0.006,-0.26954 c -10e-5,-0.01123 -2.6e-4,-0.02222 -3.9e-4,-0.03331 2e-5,-1.228539 -0.41899,-2.434547 -1.26172,-3.292967 -0.834013,-0.852836 -2.02662,-1.300782 -3.230471,-1.300782 -1.173483,0 -2.338754,0.464921 -3.156251,1.302733 -0.07451,0.07637 -0.101709,0.185976 -0.169924,0.267578 -0.06292,-0.07921 -0.08724,-0.18324 -0.156249,-0.257812 -0.755708,-0.816571 -1.86066,-1.3125 -2.972656,-1.312501 -0.415259,10e-7 -0.827713,0.115338 -1.230469,0.248047 -0.174243,-0.06831 -0.35972,-0.103426 -0.546874,-0.103519 l -1.400392,0 c -0.24885,-1.31e-4 -0.493829,0.06162 -0.71289,0.179688 -0.219069,-0.118052 -0.464038,-0.17982 -0.712892,-0.179683 l -1.40625,0 c -0.186371,-2.76e-4 -0.371161,0.03417 -0.544921,0.101561 -0.400945,-0.131906 -0.812207,-0.24609 -1.226563,-0.246093 -1.111996,0 -2.21695,0.495934 -2.972655,1.3125 -0.02511,0.02708 -0.03235,0.06604 -0.05666,0.09374 -0.332271,-0.330257 -0.629378,-0.703487 -1.048828,-0.91211 -0.668942,-0.336226 -1.418319,-0.49414 -2.175781,-0.494141 -0.819876,10e-7 -1.631679,0.187113 -2.347656,0.570312 -0.0013,6.33e-4 -0.0026,0.0013 -0.0038,0.002 -0.328761,0.177205 -0.525976,0.509697 -0.800782,0.76172 -0.322842,-0.366699 -0.678917,-0.715907 -1.121095,-0.933594 -0.525155,-0.26321 -1.11417,-0.400391 -1.695311,-0.400391 -0.515002,-10e-7 -0.968619,0.317116 -1.449219,0.541015 -0.276876,-0.254795 -0.639353,-0.396302 -1.015625,-0.396485 l -1.767577,0 c -0.197775,7.5e-5 -0.393583,0.03924 -0.576173,0.115234 l 7.46e-4,-0.786644 c -5.17e-4,-0.828213 -0.671787,-1.499482 -1.5,-1.5 z"
       sodipodi:nodetypes="ccccsccscccsccscccccccccccccccsscccsscccscccccsssscccccccsccccccccccccccccccccccccsccscccsccccccccscccccsccccccccssccscccccccssccsccccsccccccc" />
    <path
       id="path1388"
       style="font-style:normal;font-variant:normal;font-weight:bold;font-stretch:normal;font-size:10.5833px;line-height:1.25;font-family:'Century Gothic';-inkscape-font-specification:'Century Gothic Bold';text-align:center;text-anchor:middle;white-space:pre;fill:#ececec;fill-opacity:1;stroke:none;stroke-width:1"
       d="m 128.3007,79.713483 c -0.33073,0.161918 -0.69419,0.284221 -1.09037,0.366903 -0.39274,0.07924 -0.81822,0.118854 -1.27641,0.118854 -0.50643,0 -1.09209,-0.07234 -1.757,-0.21704 -0.37551,-0.08268 -0.67007,-0.124024 -0.88367,-0.124024 -0.2825,0 -0.56844,0.08613 -0.85783,0.258382 -0.28594,0.168809 -0.50815,0.392742 -0.66662,0.671795 -0.15848,0.275606 -0.23771,0.575331 -0.23771,0.899168 0,0.499539 0.17742,0.92501 0.53226,1.276408 0.35485,0.351399 0.78549,0.527101 1.29191,0.527101 0.50299,0 0.92846,-0.175702 1.27641,-0.527101 0.3514,-0.351398 0.5271,-0.778592 0.5271,-1.281575 0,-0.196369 -0.0379,-0.415134 -0.11369,-0.656291 0.26528,0.0241 0.51677,0.03617 0.75448,0.03617 0.23082,0 0.48232,-0.01206 0.75447,-0.03617 0.27217,-0.02756 0.56328,-0.06717 0.87334,-0.118854 l -5.15214,7.260538 h 1.04386 l 6.02547,-8.454264 z m -65.339168,0.144693 v 7.792808 h 1.410769 v -2.588991 l 2.387449,2.588991 h 1.751833 l -2.713014,-2.924887 2.418456,-2.697509 h -1.767332 l -2.077392,2.320271 v -4.490683 z m 49.427998,0 c -0.85439,0 -1.52102,0.344511 -1.99988,1.033529 -0.43064,0.627007 -0.64596,1.638149 -0.64596,3.033408 0,0.999075 0.11024,1.769057 0.33073,2.309934 0.22049,0.54088 0.52538,0.94396 0.91467,1.209231 0.3893,0.265271 0.86989,0.397907 1.44178,0.397907 0.57188,0 1.04559,-0.130913 1.4211,-0.39274 0.37551,-0.265271 0.67351,-0.678685 0.894,-1.240234 0.22393,-0.561549 0.3359,-1.347036 0.3359,-2.356446 0,-0.999074 -0.11025,-1.777671 -0.33073,-2.335776 -0.21705,-0.561549 -0.5271,-0.978408 -0.93018,-1.250569 -0.39963,-0.272161 -0.87677,-0.408244 -1.43143,-0.408244 z m 5.93245,0 c -0.85438,0 -1.52101,0.344511 -1.99988,1.033529 -0.43063,0.627007 -0.64595,1.638149 -0.64595,3.033408 0,0.999075 0.11024,1.769057 0.33072,2.309934 0.22049,0.54088 0.52539,0.94396 0.91468,1.209231 0.38929,0.265271 0.86989,0.397907 1.44177,0.397907 0.57189,0 1.04559,-0.130913 1.4211,-0.39274 0.37552,-0.265271 0.67352,-0.678685 0.894,-1.240234 0.22394,-0.561549 0.3359,-1.347036 0.3359,-2.356446 0,-0.999074 -0.11024,-1.777671 -0.33073,-2.335776 -0.21704,-0.561549 -0.5271,-0.978408 -0.93017,-1.250569 -0.39964,-0.272161 -0.87678,-0.408244 -1.43144,-0.408244 z M 53.701115,80.04938 v 7.601604 h 1.436606 V 80.04938 Z m 51.557575,0 -0.83715,1.35909 h 1.56579 v 6.242514 h 1.43661 V 80.04938 Z m 18.08624,0.754475 c 0.24115,0 0.44614,0.08441 0.61495,0.253214 0.17225,0.16881 0.25838,0.373793 0.25838,0.61495 0,0.241157 -0.0861,0.447863 -0.25838,0.620118 -0.16881,0.168809 -0.3738,0.253214 -0.61495,0.253214 -0.24116,0 -0.44787,-0.0844 -0.62012,-0.253214 -0.1688,-0.172255 -0.25321,-0.378961 -0.25321,-0.620118 0,-0.237709 0.0844,-0.440973 0.25321,-0.609782 0.17225,-0.172255 0.37896,-0.258382 0.62012,-0.258382 z m -10.91871,0.428914 c 0.35829,0 0.6494,0.189481 0.87333,0.568441 0.22738,0.37896 0.34106,1.067983 0.34106,2.067057 0,0.985296 -0.12574,1.6881 -0.37724,2.108399 -0.2067,0.347953 -0.48576,0.521933 -0.83715,0.521933 -0.36518,0 -0.66319,-0.182592 -0.89401,-0.54777 -0.22737,-0.368625 -0.34106,-1.033534 -0.34106,-1.994712 0,-0.737248 0.05,-1.29708 0.14986,-1.679482 0.0999,-0.382405 0.2446,-0.651124 0.43408,-0.806154 0.18948,-0.158472 0.40653,-0.237712 0.65113,-0.237712 z m 5.93193,0 c 0.35829,0 0.6494,0.189481 0.87333,0.568441 0.22738,0.37896 0.34107,1.067983 0.34107,2.067057 0,0.985296 -0.12574,1.6881 -0.37724,2.108399 -0.2067,0.347953 -0.48576,0.521933 -0.83716,0.521933 -0.36518,0 -0.66318,-0.182592 -0.894,-0.54777 -0.22738,-0.368625 -0.34106,-1.033534 -0.34106,-1.994712 0,-0.737248 0.0499,-1.29708 0.14986,-1.679482 0.0999,-0.382405 0.2446,-0.651124 0.43408,-0.806154 0.18948,-0.158472 0.40652,-0.237712 0.65112,-0.237712 z m -58.67807,0.651123 c -0.272161,0 -0.53916,0.0534 -0.800984,0.160198 -0.258382,0.103351 -0.547772,0.289388 -0.868164,0.558106 v -0.573608 h -1.405599 v 5.622396 h 1.405599 v -2.258261 c 0,-0.585664 0.02066,-0.966351 0.06201,-1.142051 0.07924,-0.337616 0.220488,-0.601167 0.423746,-0.790649 0.206706,-0.192923 0.453033,-0.289388 0.738974,-0.289388 0.220485,0 0.404799,0.05857 0.552939,0.175702 0.151583,0.113686 0.256659,0.280776 0.315225,0.501261 0.06201,0.220485 0.09302,0.666628 0.09302,1.338419 v 2.464967 h 1.395264 v -3.715536 c 0,-0.647676 -0.163642,-1.136883 -0.490926,-1.467612 -0.389295,-0.389295 -0.862997,-0.583944 -1.421101,-0.583944 z m 11.001912,0 c -0.533987,0 -0.973241,0.158475 -1.317749,0.475425 -0.341064,0.313502 -0.511596,0.692465 -0.511596,1.13688 0,0.689017 0.454755,1.262629 1.364258,1.720826 l 0.475422,0.237713 c 0.409966,0.206703 0.61495,0.418578 0.61495,0.635619 0,0.117133 -0.05684,0.220485 -0.170532,0.310057 -0.113689,0.08957 -0.263549,0.134361 -0.449586,0.134361 -0.172254,0 -0.370348,-0.05857 -0.594278,-0.175702 -0.220485,-0.120576 -0.413411,-0.277331 -0.578776,-0.470255 l -0.868164,0.945679 c 0.489202,0.640787 1.143775,0.961181 1.963703,0.961181 0.61667,0 1.107599,-0.167087 1.47278,-0.501261 0.368622,-0.334174 0.552937,-0.751033 0.552937,-1.250569 0,-0.375515 -0.10163,-0.702799 -0.30489,-0.981853 -0.203261,-0.27905 -0.577057,-0.552939 -1.121379,-0.821655 l -0.516765,-0.258382 c -0.22393,-0.110241 -0.365178,-0.196368 -0.423746,-0.258381 -0.05512,-0.06546 -0.08268,-0.136083 -0.08268,-0.211873 0,-0.0999 0.04479,-0.182589 0.134358,-0.248047 0.08957,-0.0689 0.213598,-0.103354 0.372071,-0.103354 0.289388,0 0.611507,0.175701 0.966351,0.5271 l 0.873331,-0.873332 c -0.22393,-0.299722 -0.497819,-0.528822 -0.821656,-0.687297 -0.320394,-0.16192 -0.663183,-0.24288 -1.028361,-0.24288 z m 5.968627,0 c -0.602887,0 -1.14894,0.130916 -1.638141,0.392743 -0.485757,0.261826 -0.864719,0.621839 -1.136883,1.080037 -0.272161,0.458195 -0.408242,0.959461 -0.408242,1.503783 -2e-6,0.785479 0.279054,1.471059 0.837158,2.056723 0.561549,0.585665 1.336699,0.878498 2.325439,0.878498 1.098981,0 1.949926,-0.391019 2.552816,-1.173054 l -1.111043,-0.759645 c -0.351399,0.430636 -0.842328,0.645956 -1.47278,0.645956 -0.509873,0 -0.921562,-0.151585 -1.235067,-0.454752 -0.313502,-0.303168 -0.470254,-0.694187 -0.470254,-1.173054 0,-0.492646 0.161919,-0.895726 0.485759,-1.209231 0.327281,-0.316947 0.754478,-0.475422 1.281575,-0.475422 0.289386,0 0.54088,0.04479 0.754476,0.134358 0.21704,0.08957 0.435805,0.249772 0.656291,0.480592 l 1.173054,-0.645956 C 78.962281,82.755504 78.59882,82.440274 78.154405,82.219789 77.70999,81.995859 77.208723,81.883892 76.650619,81.883892 Z m 6.252851,0 c -0.733804,0 -1.357371,0.277334 -1.870689,0.831991 -0.513316,0.554659 -0.769978,1.266076 -0.769978,2.134237 0,0.837155 0.265274,1.538238 0.795817,2.103231 0.530542,0.56155 1.159277,0.842325 1.886191,0.842325 0.323836,0 0.623562,-0.05684 0.899168,-0.170532 0.279053,-0.117133 0.556384,-0.306615 0.831993,-0.568441 v 0.594281 h 1.405599 v -5.622396 h -1.405599 v 0.620117 C 84.42448,82.393768 84.150594,82.202564 83.854316,82.075096 83.558038,81.947628 83.241086,81.883892 82.90347,81.883892 Z m 7.78247,0 c -0.337619,0 -0.654569,0.06374 -0.950847,0.191204 -0.296277,0.127468 -0.571886,0.318672 -0.826823,0.573609 v -0.620117 h -1.400431 v 7.679116 h 1.400431 v -2.651001 c 0.275606,0.261826 0.55294,0.451308 0.831991,0.568441 0.279053,0.113689 0.580501,0.170532 0.904338,0.170532 0.726913,0 1.355648,-0.280775 1.88619,-0.842325 0.53054,-0.564993 0.795817,-1.266076 0.795817,-2.103231 0,-0.868161 -0.256664,-1.579578 -0.76998,-2.134237 -0.513315,-0.554657 -1.136883,-0.831991 -1.870686,-0.831991 z m 6.454386,0 c -0.833713,0 -1.527905,0.284224 -2.082559,0.852663 -0.551215,0.564993 -0.826823,1.27641 -0.826823,2.134235 0,0.837157 0.277336,1.534792 0.83199,2.092896 0.554659,0.554659 1.272966,0.83199 2.154907,0.83199 0.568439,0 1.059365,-0.09991 1.472779,-0.299722 0.413407,-0.203261 0.768255,-0.515044 1.064533,-0.935345 l -1.188556,-0.558104 c -0.37896,0.368623 -0.83199,0.552937 -1.359091,0.552937 -0.440973,0 -0.804434,-0.117134 -1.090374,-0.351398 -0.282485,-0.237713 -0.456465,-0.556385 -0.52193,-0.956014 h 4.532018 l 0.005,-0.268719 c 1e-5,-0.930172 -0.277328,-1.677763 -0.831988,-2.242756 -0.554659,-0.568439 -1.274688,-0.852663 -2.160074,-0.852663 z m 0.06718,1.193726 c 0.361733,0 0.678686,0.09819 0.950847,0.294556 0.275606,0.196371 0.459917,0.451307 0.552937,0.764812 h -3.054078 c 0.158475,-0.347953 0.330732,-0.590836 0.516766,-0.728639 0.29628,-0.220485 0.640789,-0.330729 1.033528,-0.330729 z M 83.192858,83.18614 c 0.44786,0 0.81821,0.151585 1.111043,0.454752 0.292833,0.303168 0.439248,0.699355 0.439248,1.188556 0,0.499539 -0.146415,0.904341 -0.439248,1.214398 -0.292833,0.306613 -0.661461,0.45992 -1.105876,0.45992 -0.430636,0 -0.794097,-0.156752 -1.090375,-0.470254 -0.29283,-0.313505 -0.439248,-0.713137 -0.439248,-1.198894 0,-0.482314 0.144696,-0.876779 0.434081,-1.183391 0.289388,-0.310057 0.652849,-0.465087 1.090375,-0.465087 z m 7.198526,0 c 0.440971,0 0.806154,0.15503 1.09554,0.465087 0.289388,0.306612 0.434083,0.701077 0.434083,1.183391 0,0.485757 -0.14814,0.885389 -0.444418,1.198894 -0.292833,0.313502 -0.654569,0.470254 -1.085205,0.470254 -0.444415,0 -0.813043,-0.153307 -1.105876,-0.45992 -0.292833,-0.310057 -0.439251,-0.714859 -0.439248,-1.214398 -3e-6,-0.489201 0.146415,-0.885388 0.439248,-1.188556 0.292833,-0.303167 0.661461,-0.454752 1.105876,-0.454752 z m 37.991996,1.038696 c -0.50298,0 -0.93189,0.177424 -1.28674,0.532267 -0.3514,0.354844 -0.5271,0.78376 -0.5271,1.286743 0,0.499536 0.1757,0.926733 0.5271,1.281576 0.35485,0.354843 0.78376,0.532267 1.28674,0.532267 0.49954,0 0.92674,-0.177424 1.28158,-0.532267 0.35484,-0.354843 0.53226,-0.78204 0.53226,-1.281576 0,-0.502983 -0.17742,-0.931899 -0.53226,-1.286743 -0.35484,-0.354843 -0.78204,-0.532267 -1.28158,-0.532267 z m -0.005,0.935342 c 0.24116,0 0.44614,0.08613 0.61495,0.258384 0.17225,0.172254 0.25838,0.37896 0.25838,0.620117 0,0.241154 -0.0861,0.447863 -0.25838,0.620117 -0.16881,0.172254 -0.37379,0.258382 -0.61495,0.258382 -0.2446,0 -0.45304,-0.08613 -0.62529,-0.258382 -0.16881,-0.172254 -0.25322,-0.378963 -0.25322,-0.620117 1e-5,-0.241157 0.0844,-0.447863 0.25322,-0.620117 0.17225,-0.172255 0.38069,-0.258384 0.62529,-0.258384 z" />
    <text
       xml:space="preserve"
       id="text1376"
       style="font-style:normal;font-variant:normal;font-weight:bold;font-stretch:normal;font-size:10.5833px;line-height:1.25;font-family:'Century Gothic';-inkscape-font-specification:'Century Gothic Bold';text-align:center;white-space:pre;shape-inside:url(#rect1378);fill:#439e43;fill-opacity:1;stroke:#398a39;stroke-width:0.264583;stroke-miterlimit:4;stroke-dasharray:none;stroke-opacity:1;"
       x="23.251736"
       y="0"
       transform="translate(-6.9091648,3.8431577)"><tspan
         x="59.617962"
         y="83.90909"><tspan
           style="font-style:normal;font-variant:normal;font-weight:bold;font-stretch:normal;font-family:'Century Gothic';-inkscape-font-specification:'Century Gothic Bold';text-align:center;text-anchor:middle;fill:#439e43;fill-opacity:1;stroke:#398a39;stroke-width:0.264583;stroke-miterlimit:4;stroke-dasharray:none;stroke-opacity:1">Inkscape 100%</tspan></tspan></text>
    <rect
       y="79.279137"
       x="95.760994"
       height="12.49213"
       width="3.0124643"
       id="rect1573"
       style="opacity:0.7;fill:#4d4d4d;fill-opacity:1;fill-rule:evenodd;stroke:none;stroke-width:0.283768;stroke-miterlimit:4;stroke-dasharray:none;stroke-opacity:1;paint-order:markers fill stroke;filter:url(#filter1579)"
       transform="matrix(0.93028021,0,0,0.89195137,6.7814498,9.146878)" />
    <rect
       style="opacity:1;fill:url(#radialGradient1597);fill-opacity:1;fill-rule:evenodd;stroke:none;stroke-width:0.264583;stroke-miterlimit:4;stroke-dasharray:none;stroke-opacity:1;paint-order:markers fill stroke"
       id="rect1571"
       width="2.6188912"
       height="12.49213"
       x="95.965576"
       y="79.279137" />
    <text
       transform="translate(-7.9375009,25.4)"
       style="font-style:normal;font-weight:normal;font-size:10.5833px;line-height:1.25;font-family:sans-serif;white-space:pre;shape-inside:url(#rect4087);fill:#ffffff;fill-opacity:1;stroke:none;"
       id="text4085"
       xml:space="preserve"><tspan
         x="70.378906"
         y="129.77656"><tspan
           style="fill:#ffffff">learned from youtube</tspan></tspan></text>
  </g>
  <inkscape:templateinfo>
    <inkscape:name>700 x 700</inkscape:name>
    <inkscape:author>LP</inkscape:author>
    <inkscape:shortdesc>700 px Square</inkscape:shortdesc>
    <inkscape:date>2020-05-26</inkscape:date>
  </inkscape:templateinfo>
</svg>
